<?xml version="1.0" standalone="no"?>
<!DOCTYPE svg PUBLIC "-//W3C//DTD SVG 20010904//EN"
 "http://www.w3.org/TR/2001/REC-SVG-20010904/DTD/svg10.dtd">
<svg version="1.0" xmlns="http://www.w3.org/2000/svg"
 width="392.000000pt" height="392.000000pt" viewBox="0 0 392.000000 392.000000"
 preserveAspectRatio="xMidYMid meet">
<metadata>
Created by potrace 1.14, written by Peter Selinger 2001-2017
</metadata>
<g transform="translate(0.000000,392.000000) scale(0.100000,-0.100000)"
fill="#000000" stroke="none">
<path d="M32 2781 c-5 -4 -9 -330 -8 -816 l1 -810 510 0 510 0 0 95 0 95 -298
1 c-206 1 -301 4 -309 12 -8 8 -11 207 -11 717 0 388 -3 706 -6 707 -19 5
-381 4 -389 -1z"/>
<path d="M1216 2781 c-2 -3 -3 -370 -2 -816 l1 -810 505 0 505 0 2 89 c0 48 6
93 12 99 6 6 52 11 103 11 l93 1 1 608 1 607 -21 5 c-12 3 -49 3 -84 2 -100
-5 -105 0 -106 113 l-1 95 -503 1 c-276 1 -504 -2 -506 -5z m806 -199 c15 -15
16 -1208 0 -1224 -7 -7 -78 -11 -206 -12 l-196 -1 -8 25 c-9 30 -8 1176 1
1205 6 19 15 20 202 19 127 -1 200 -5 207 -12z"/>
<path d="M2656 2771 c-5 -21 -6 -1569 0 -1597 l4 -21 492 -1 c271 0 500 2 509
4 13 4 16 20 16 94 -1 49 2 93 6 96 4 4 46 8 94 9 49 1 91 2 94 3 8 3 7 592 0
594 -28 7 -94 10 -139 5 -23 -2 -37 2 -45 14 -15 21 -14 183 0 201 8 9 39 13
101 13 l89 -1 -1 196 -1 195 -87 0 c-52 1 -93 6 -99 12 -7 7 -13 50 -14 100
-1 48 -3 91 -4 94 0 3 -228 6 -506 6 -453 0 -505 -2 -509 -16z m821 -201 c11
-43 7 -378 -5 -392 -8 -10 -59 -13 -206 -12 -108 1 -199 4 -203 7 -11 12 -7
395 4 409 9 10 58 13 208 13 l196 0 6 -25z m-5 -608 c10 -8 13 -74 12 -294 0
-155 -4 -292 -7 -303 -6 -19 -15 -20 -203 -19 -162 1 -199 4 -208 16 -7 10
-11 110 -10 304 1 278 1 289 20 299 27 14 379 11 396 -3z"/>
</g>
</svg>
